# xmcd
#
# Track frame offsets:
#   150
#   23617
#   45377
#   67451
#   99025
#   123686
#   147416
#   167131
#   190145
#   210618
#   234037
#   256440
#   272071
#   288040
#   306852
#   322245
#   337015
#
# Disc length: 4716 seconds
#
# Revision: 0
# Processed by: cddbd v1.5.1PL2 Copyright (c) Steve Scherf et al.
# Submitted via: GXTranscoder 2.0.1939
#
DISCID=fc126a11
DTITLE=Mana - Juanes
DYEAR=1900
DGENRE=Pop
TTITLE0=Track1
TTITLE1=Track2
TTITLE2=Track3
TTITLE3=Track4
TTITLE4=Track5
TTITLE5=Track6
TTITLE6=Track7
TTITLE7=Track8
TTITLE8=Track9
TTITLE9=Track10
TTITLE10=Track11
TTITLE11=Track12
TTITLE12=Track13
TTITLE13=Track14
TTITLE14=Track15
TTITLE15=Track16
TTITLE16=Track17
EXTD=
EXTT0=
EXTT1=
EXTT2=
EXTT3=
EXTT4=
EXTT5=
EXTT6=
EXTT7=
EXTT8=
EXTT9=
EXTT10=
EXTT11=
EXTT12=
EXTT13=
EXTT14=
EXTT15=
EXTT16=
PLAYORDER=
